HIERARCHY
ROOT hip
{
	OFFSET 0.000000 0.000000 0.000000 
	CHANNELS 6 Xposition Yposition Zposition Zrotation Xrotation Yrotation
	JOINT abdomen
	{
		OFFSET 0.000000 3.402643 0.000000 
		CHANNELS 3 Zrotation Xrotation Yrotation
		JOINT chest
		{
			OFFSET 0.000000 8.438565 -0.680529 
			CHANNELS 3 Zrotation Xrotation Yrotation
			JOINT neck
			{
				OFFSET 0.000000 10.207942 -0.272212 
				CHANNELS 3 Zrotation Xrotation Yrotation
				JOINT head
				{
					OFFSET 0.000000 3.130431 0.000000 
					CHANNELS 3 Zrotation Xrotation Yrotation
					End Site
					{
						OFFSET 0.000000 3.130435 0.000000 
					}
				}
			}
			JOINT lCollar
			{
				OFFSET 3.470700 6.669187 -0.816635 
				CHANNELS 3 Zrotation Xrotation Yrotation
				JOINT lShldr
				{
					OFFSET 3.198488 0.000000 0.000000 
					CHANNELS 3 Zrotation Xrotation Yrotation
					JOINT lForeArm
					{
						OFFSET 10.139888 0.000000 0.000000 
						CHANNELS 3 Zrotation Xrotation Yrotation
						JOINT lHand
						{
							OFFSET 8.370511 0.000000 0.000000 
							CHANNELS 3 Zrotation Xrotation Yrotation
							End Site
							{
								OFFSET 4.083176 0.000000 0.000000 
							}
						}
					}
				}
			}
			JOINT rCollar
			{
				OFFSET -3.470700 6.669187 -0.816635 
				CHANNELS 3 Zrotation Xrotation Yrotation
				JOINT rShldr
				{
					OFFSET -3.198488 0.000000 0.000000 
					CHANNELS 3 Zrotation Xrotation Yrotation
					JOINT rForeArm
					{
						OFFSET -10.139888 0.000000 0.000000 
						CHANNELS 3 Zrotation Xrotation Yrotation
						JOINT rHand
						{
							OFFSET -8.370511 0.000000 0.000000 
							CHANNELS 3 Zrotation Xrotation Yrotation
							End Site
							{
								OFFSET -4.083176 0.000000 0.000000 
							}
						}
					}
				}
			}
		}
	}
	JOINT lThigh
	{
		OFFSET 5.308129 -1.633274 1.361059 
		CHANNELS 3 Zrotation Xrotation Yrotation
		JOINT lShin
		{
			OFFSET -2.041588 -20.007561 0.000000 
			CHANNELS 3 Zrotation Xrotation Yrotation
			JOINT lFoot
			{
				OFFSET 0.000000 -19.190928 -1.224953 
				CHANNELS 3 Zrotation Xrotation Yrotation
				End Site
				{
					OFFSET 0.000000 -2.449906 4.627600 
				}
			}
		}
	}
	JOINT rThigh
	{
		OFFSET -5.308129 -1.633274 1.361059 
		CHANNELS 3 Zrotation Xrotation Yrotation
		JOINT rShin
		{
			OFFSET 2.041588 -20.007561 0.000000 
			CHANNELS 3 Zrotation Xrotation Yrotation
			JOINT rFoot
			{
				OFFSET 0.000000 -19.190928 -1.224953 
				CHANNELS 3 Zrotation Xrotation Yrotation
				End Site
				{
					OFFSET 0.000000 -2.449906 4.627600 
				}
			}
		}
	}
}
MOTION
Frames: 11
Frame Time: 0.033333
1.077737 46.058792 4.334410 -0.000000 9.306632 -0.000000 0.830394 -1.581863 22.689087 1.158164 12.009335 -0.621871 -0.000000 -17.402349 -0.000000 -6.163348 3.427389 -0.597961 -5.665299 -0.372954 1.690930 -31.567091 23.303009 1.541816 28.899178 44.284508 -111.491982 -49.692169 39.435738 5.078326 4.167638 1.881431 28.297571 26.072353 -7.114627 8.208162 19.752634 14.574240 120.726898 -25.645445 40.687729 30.981604 6.961038 -29.356344 3.558953 -2.664622 18.335752 -0.838739 -3.387771 0.951072 -0.235252 -8.654464 -20.665648 -2.840369 2.922493 29.674156 0.317238 4.191540 -19.039949 -0.480937 
1.079091 46.056522 4.315628 -0.000000 9.306632 -0.000000 0.830442 -1.699038 22.690788 1.158164 12.009335 -0.621871 -0.000000 -17.402349 -0.000000 -6.163348 3.427388 -0.539366 -5.665299 -0.372954 1.690930 -31.498369 23.380671 1.585275 28.942949 44.240505 -111.534988 -49.692169 39.435738 5.078326 4.159033 1.876794 28.297920 31.540897 -7.113257 8.208139 29.607838 1.434086 126.693520 -34.725288 36.591564 30.027426 6.967024 -29.451248 3.622212 -2.696688 18.379227 -0.872371 -3.414964 1.071021 -0.220921 -8.658122 -20.741194 -2.823103 2.933750 29.673510 0.304358 4.231098 -18.840425 -0.410564 
1.079095 46.056107 4.299869 -0.000000 9.306632 -0.000000 0.830504 -1.835741 22.682999 1.148096 11.989853 -0.619393 -0.000000 -17.402349 -0.000000 -6.153627 3.427450 -0.471581 -5.665299 -0.372954 1.690930 -31.435320 23.458706 1.618150 28.986843 44.212212 -111.589134 -49.692169 39.435738 5.078326 4.167638 1.881431 28.297571 38.054752 -7.114628 8.208161 43.365498 -12.419124 136.880402 -43.913479 32.544010 29.205751 6.981831 -29.499832 3.614420 -2.726772 18.338249 -0.788551 -3.423883 1.161014 -0.327620 -8.650459 -20.798634 -3.472958 2.642211 29.707644 0.396780 4.316794 -18.670603 0.174623 
1.077742 46.057957 4.284050 -0.000000 9.306632 -0.000000 0.830555 -1.943153 22.674791 1.148055 11.980083 -0.619002 -0.000000 -17.392578 -0.000000 -6.153627 3.427450 -0.422753 -5.665299 -0.372954 1.690930 -31.372362 23.536463 1.651062 28.994144 44.210072 -111.609909 -49.692169 39.435738 5.078326 4.167638 1.881431 28.297571 43.503784 -7.113256 8.208137 57.544548 -21.622162 148.549561 -53.172382 28.566435 28.486328 6.983342 -29.534687 3.677444 -2.582001 18.334442 -0.931507 -3.443375 1.097870 -0.240269 -8.654028 -20.856997 -3.521610 2.654476 29.735712 0.403526 4.338127 -18.559229 0.213429 
1.075032 46.062496 4.265088 -0.000000 9.296865 -0.000000 0.830579 -1.991973 22.675352 1.158038 11.980041 -0.621072 -0.000000 -17.392578 -0.000000 -6.153627 3.427451 -0.364159 -5.665299 -0.372954 1.690930 -31.309502 23.613960 1.684014 28.990412 44.246735 -111.641266 -49.692169 39.435738 5.078326 4.167638 1.881431 28.297571 45.779171 -7.113254 8.208132 64.588104 -24.456244 154.614136 -62.512295 24.666624 27.879698 7.002182 -29.626642 3.629032 -2.748470 18.415480 -0.746845 -3.375935 1.201367 -0.338765 -8.659524 -20.918592 -3.639915 2.699003 29.732809 0.371561 4.188353 -18.594852 0.267760 
1.071230 46.069519 4.241643 -0.000000 9.306632 -0.000000 0.830554 -1.943153 22.694321 1.168148 12.009301 -0.623948 -0.000000 -17.382816 -0.000000 -6.163347 3.427388 -0.314755 -5.665234 -0.373915 1.700645 -31.241251 23.691856 1.727677 28.966412 44.332680 -111.667397 -49.692169 39.435738 5.078326 4.167638 1.881431 28.297571 43.474682 -7.114629 8.208162 58.445393 -21.424038 149.482132 -53.172382 28.566435 28.486328 7.001509 -29.624323 3.657310 -2.644989 18.377567 -0.852520 -3.438881 1.176757 -0.254467 -8.642320 -20.978394 -3.644680 2.744292 29.749031 0.349406 4.252497 -18.439619 0.351622 
1.067700 46.076340 4.219379 -0.000000 9.306632 -0.000000 0.840281 -1.845505 22.712751 1.178303 12.048315 -0.626847 -0.000000 -17.373047 -0.000000 -6.163347 3.427387 -0.265926 -5.665234 -0.373915 1.700645 -31.178614 23.769588 1.760727 28.944794 44.425888 -111.699821 -49.692169 39.435738 5.078326 4.167638 1.881431 28.297571 37.995975 -7.113257 8.208139 44.712555 -12.462310 138.407425 -43.913479 32.544010 29.205751 7.013544 -29.657722 3.714822 -2.601070 18.380129 -0.957727 -3.563133 1.218966 -0.249111 -8.662569 -21.010487 -3.566035 2.710518 29.741659 0.368474 4.193729 -18.540138 0.219453 
1.066070 46.079647 4.205695 -0.000000 9.316396 -0.000000 0.840235 -1.747860 22.720940 1.188375 12.067794 -0.629345 -0.000000 -17.373047 -0.000000 -6.163348 3.427389 -0.226862 -5.655505 -0.372664 1.700679 -31.116049 23.847319 1.793813 28.946764 44.468872 -111.727417 -49.692169 39.435738 5.078326 4.167638 1.881431 28.297571 31.482307 -7.113257 8.208139 30.779228 0.973028 128.255249 -34.725288 36.591564 30.027426 7.016690 -29.688786 3.699954 -2.572875 18.386309 -0.894895 -3.543688 1.191470 -0.254074 -8.663885 -21.030180 -3.579109 2.711185 29.762268 0.339399 4.259821 -18.509077 0.232625 
1.067969 46.076138 4.208001 -0.000000 9.316396 -0.000000 0.840213 -1.699031 22.710596 1.178303 12.048315 -0.626847 -0.000000 -17.373047 -0.000000 -6.163347 3.427389 -0.178034 -5.665234 -0.373915 1.700645 -31.057936 23.924900 1.837627 29.001644 44.393959 -111.780334 -49.692169 39.435738 5.078326 4.167638 1.881431 28.297571 26.033285 -7.114628 8.208162 20.395123 13.998170 121.792229 -25.645445 40.687729 30.981604 7.038218 -29.670719 3.743490 -2.630713 18.347200 -0.932562 -3.461437 1.328979 -0.311762 -8.663884 -21.030180 -3.579108 2.755567 29.757900 0.346383 4.226264 -18.526251 0.263486 
1.075032 46.062496 4.233700 -0.000000 9.296865 -0.000000 0.830468 -1.757627 22.672098 1.158038 11.980041 -0.621072 -0.000000 -17.392578 -0.000000 -6.153627 3.427451 -0.139549 -5.665299 -0.372954 1.690930 -30.985832 24.002609 1.870807 29.132442 44.170399 -111.844643 -49.692169 39.435738 5.078326 4.167638 1.881431 28.297571 23.777424 -7.114628 8.208160 15.763234 20.451904 118.849808 -16.672134 44.815445 32.085484 7.017093 -29.682768 3.651204 -2.717381 18.406601 -0.849650 -3.324077 1.196396 -0.227016 -8.643544 -20.989426 -3.637089 2.767049 29.766376 0.353028 4.253073 -18.611227 0.298712 
1.087526 46.038116 4.283284 -0.000000 9.277334 -0.000000 0.811023 -1.962695 22.586367 1.107605 11.853325 -0.608212 -0.000000 -17.412109 -0.000000 -6.143907 3.437222 -0.098980 -5.665452 -0.370063 1.671493 -30.923941 24.089764 1.904176 29.347195 43.771332 -111.923447 -49.692169 39.435738 5.078326 4.167638 1.881431 28.297571 26.131960 -7.113082 8.217977 18.446762 15.984627 118.988983 -25.645445 40.687729 30.981604 7.012308 -29.621956 3.660321 -2.717425 18.415440 -0.879018 -3.427277 1.110976 -0.168227 -8.648824 -20.901714 -3.635006 2.654410 29.737486 0.354906 4.380366 -18.498947 0.333594 
